<svg
        width="{{ width ?? 116 }}"
        height="{{ height ?? 116 }}"
        viewBox="0 0 64 64"  xmlns="http://www.w3.org/2000/svg">
    <g id="smartphone-mobilephone-application-delivery-box">
        <rect fill="#2488ff" height="58" rx="4" width="36" x="3" y="3"/>
        <path d="m35 9v46a2.006 2.006 0 0 1 -2 2h-24a2.006 2.006 0 0 1 -2-2v-46a2.006 2.006 0 0 1 2-2h5.17a2.016 2.016 0 0 1 1.41.58l.84.84a2.016 2.016 0 0 0 1.41.58h6.34a2.016 2.016 0 0 0 1.41-.58l.84-.84a2.016 2.016 0 0 1 1.41-.58h5.17a2.006 2.006 0 0 1 2 2z"
              fill="#ffcd00"/>
        <path d="m33 7h-2v22a24.071 24.071 0 0 1 -24 24v2a2.006 2.006 0 0 0 2 2h24a2.006 2.006 0 0 0 2-2v-46a2.006 2.006 0 0 0 -2-2z"
              fill="#ebbf00"/>
        <path d="m61 15v36a2.006 2.006 0 0 1 -2 2h-40a2.006 2.006 0 0 1 -2-2v-13l-6-4.99 6-5.01v-13a2.006 2.006 0 0 1 2-2h40a2.006 2.006 0 0 1 2 2z"
              fill="#bddbff"/>
        <path d="m59 13v36a2.006 2.006 0 0 1 -2 2h-40a2.006 2.006 0 0 0 2 2h40a2.006 2.006 0 0 0 2-2v-36a2.006 2.006 0 0 0 -2-2z"
              fill="#9bc9ff"/>
        <path d="m54 23v26h-30v-26h12 6z" fill="#a97c50"/>
        <path d="m54 23h-30l4-6h22z" fill="#c49a6c"/>
        <path d="m36 23h6v8h-6z" fill="#ee8700"/>
        <path d="m42 23-1-6h-4l-1 6z" fill="#ff9811"/>
        <path d="m28 41h10v4h-10z" fill="#ff6243"/>
        <path d="m43.293 38.707a1 1 0 0 0 1.414 0l1.293-1.293v7.586a1 1 0 0 0 2 0v-7.586l1.293 1.293a1 1 0 0 0 1.414-1.414l-3-3a1 1 0 0 0 -1.414 0l-3 3a1 1 0 0 0 0 1.414z"
              fill="#ff5023"/>
        <g fill="#f1f2f2">
            <path d="m13 10h-2a1 1 0 0 0 -1 1v2a1 1 0 0 0 2 0v-1h1a1 1 0 0 0 0-2z"/>
            <path d="m10 53a1 1 0 0 0 1 1h2a1 1 0 0 0 0-2h-1v-.986a1 1 0 0 0 -2 0z"/>
            <path d="m20 7h2a1 1 0 0 0 0-2h-2a1 1 0 0 0 0 2z"/>
        </g>
    </g>
</svg>