<?xml version="1.0"?>
<svg xmlns="http://www.w3.org/2000/svg"
     width="{{ width ?? 116 }}"
     height="{{ height ?? 116 }}"
     xmlns:xlink="http://www.w3.org/1999/xlink" xmlns:svgjs="http://svgjs.com/svgjs"
     version="1.1" x="0" y="0" viewBox="0 0 512 512" style="enable-background:new 0 0 512 512"
     xml:space="preserve" class=""><g><g xmlns="http://www.w3.org/2000/svg"><g><g><g><path d="m490.841 182.127v265.891c0 11.353-9.2 20.552-20.552 20.552h-428.588c-11.353 0-20.552-9.2-20.552-20.552v-265.891c0-11.353 9.2-20.552 20.552-20.552h428.588c11.352-.001 20.552 9.199 20.552 20.552z" fill="#3f5959" data-original="#3f5959" style=""/><path
        d="m490.843 182.128v265.893c0 11.344-9.196 20.55-20.55 20.55h-30.825c11.354 0 20.55-9.206 20.55-20.55v-265.893c0-11.354-9.196-20.55-20.55-20.55h30.825c11.354 0 20.55 9.197 20.55 20.55z"
        fill="#384848" data-original="#384848" style=""/><path
        d="m463.098 200.637v228.876c0 2.845-2.306 5.151-5.151 5.151h-403.904c-2.845 0-5.151-2.306-5.151-5.151v-228.876c0-2.845 2.306-5.151 5.151-5.151h403.905c2.844 0 5.15 2.306 5.15 5.151z"
        fill="#f9f9f9" data-original="#fc95d2" style="" class=""/><path
        d="m463.098 195.486v3.853l-162.357 162.357c-2.369 2.369-6.212 2.369-8.592 0l-124.302-124.312c-2.38-2.369-2.38-6.212 0-8.592l33.306-33.306z"
        fill="#f7f7f7" data-original="#fc76c4" style="" class=""/><path
        d="m430.214 195.482v239.18h27.736c2.845 0 5.151-2.306 5.151-5.151v-228.878c0-2.845-2.306-5.151-5.151-5.151z"
        fill="#f7f7f7" data-original="#fc76c4" style="" class=""/><g><path d="m511.743 473.235-2.081 6.387c-4.729 14.536-18.275 24.374-33.563 24.374h-440.198c-15.288 0-28.835-9.838-33.563-24.364l-2.081-6.397c-1.082-3.317 1.391-6.727 4.883-6.727h209.787l6.15 18.708c1.813 5.501 6.943 9.21 12.723 9.21h44.4c5.779 0 10.91-3.709 12.723-9.21l6.15-18.708h209.787c3.493-.001 5.965 3.409 4.883 6.727z" fill="#557983" data-original="#557983" style=""/>
    <path d="m511.742 473.241-2.076 6.381c-4.737 14.539-18.279 24.372-33.558 24.372h-29.468c15.289 0 28.831-9.833 33.568-24.372l2.075-6.381c1.079-3.329-1.387-6.73-4.881-6.73h29.458c3.495 0 5.961 3.401 4.882 6.73z"
          fill="#3f5959" data-original="#3f5959" style=""/>
    <path d="m281.26 503.995h-50.52c-8.875 0-16.748-5.698-19.521-14.129l-7.683-23.357h104.928l-7.683 23.357c-2.773 8.431-10.645 14.129-19.521 14.129z"
          fill="#384848" data-original="#384848" style=""/></g><g><path d="m315.819 161.575h66.786" fill="#eef4f5" data-original="#eef4f5" style=""/></g><g><path d="m65.766 492.581v11.415h-15.453v-11.415c0-4.275 3.461-7.726 7.726-7.726 4.266 0 7.727 3.451 7.727 7.726z" fill="#384848" data-original="#384848" style=""/></g><g><path d="m89.368 492.581v11.415h-15.453v-11.415c0-4.275 3.461-7.726 7.726-7.726s7.727 3.451 7.727 7.726z" fill="#384848" data-original="#384848" style=""/></g><g><path d="m112.979 492.581v11.415h-15.452v-11.415c0-4.275 3.451-7.726 7.726-7.726 4.265 0 7.726 3.451 7.726 7.726z" fill="#384848" data-original="#384848" style=""/></g></g><g><g><path d="m432.486 387.068h-15.392c-4.267 0-7.726-3.459-7.726-7.726 0-4.268 3.459-7.726 7.726-7.726h15.392c4.267 0 7.726 3.459 7.726 7.726s-3.459 7.726-7.726 7.726z" fill="#e2e2e2" data-original="#fb54b6" style="" class=""/></g>
    <g><path d="m432.486 410.031h-68.791c-4.267 0-7.726-3.459-7.726-7.726 0-4.268 3.459-7.726 7.726-7.726h68.791c4.267 0 7.726 3.459 7.726 7.726s-3.459 7.726-7.726 7.726z" fill="#e2e2e2" data-original="#fb54b6" style="" class=""/></g></g></g></g><g><path d="m158.205 200.194 142.536-33.069-11.857 168.198-7.252 7.253c-2.38 2.369-6.222 2.369-8.602 0l-124.303-124.302c-2.38-2.38-2.38-6.222 0-8.602z" fill="#fcc16d" data-original="#fcc16d" style="" class=""/>
    <path d="m481.518 142.689-7.252 7.253-168.198 11.857 33.069-142.536 9.478-9.478c2.369-2.369 6.222-2.38 8.602 0l124.302 124.302c2.378 2.37 2.368 6.223-.001 8.602z"
          fill="#fcc16d" data-original="#fcc16d" style="" class=""/>
    <g fill="#fcb44d"><path d="m481.518 142.689-7.252 7.253-6.099.433c-.288-.629-.69-1.216-1.205-1.731l-124.303-124.302c-1.185-1.185-2.73-1.782-4.286-1.782l.762-3.297 9.478-9.478c2.369-2.369 6.222-2.38 8.602 0l124.302 124.302c2.38 2.37 2.37 6.223.001 8.602z" fill="#fcb44d" data-original="#fcb44d" style="" class=""/>
        <path d="m158.205 200.194 142.536-33.069-2.266 32.131-136.984 31.781-12.764-12.764c-2.38-2.38-2.38-6.222 0-8.602z"
              fill="#fcb44d" data-original="#fcb44d" style="" class=""/>
        <path d="m369.98 22.549-31.781 136.983-32.131 2.267 33.069-142.536 9.478-9.478c2.369-2.369 6.222-2.38 8.602 0z"
              fill="#fcb44d" data-original="#fcb44d" style="" class=""/></g>
    <g><g><path d="m483.271 138.981c-.133 1.355-.718 2.67-1.755 3.707l-199.886 199.886c-1.036 1.036-2.352 1.621-3.707 1.755l13.224-187.574c.524-2.26 2.289-4.025 4.549-4.549z" fill="#fb9927" data-original="#fb9927" style="" class=""/></g></g>
    <path d="m340.637 149.036-6.174 26.609c-1.13 4.848-3.579 9.268-7.095 12.783-3.516 3.516-7.935 5.966-12.777 7.089l-26.609 6.174 3.168-44.941c.521-2.259 2.288-4.026 4.547-4.547z"
          fill="#fb7722" data-original="#fb7722" style=""/>
    <g><path d="m146.974 213.379c.133-1.355.718-2.67 1.755-3.707l199.886-199.886c1.036-1.036 2.352-1.621 3.707-1.755l-37.812 162.987c-.524 2.26-2.289 4.025-4.549 4.549z" fill="#fddaa9" data-original="#fddaa9" style=""/></g></g><g><path d="m232.579 399.352c-1.977 0-3.955-.755-5.463-2.263-3.018-3.018-3.018-7.909 0-10.928l49.052-49.052c3.017-3.016 7.909-3.016 10.927 0 3.018 3.018 3.018 7.909 0 10.928l-49.052 49.052c-1.509 1.508-3.487 2.263-5.464 2.263z" fill="#e2e2e2" data-original="#fb54b6" style="" class=""/></g><g><path d="m168.261 398.646c-1.977 0-3.955-.755-5.463-2.263-3.018-3.018-3.018-7.909 0-10.928l46.776-46.777c3.017-3.016 7.909-3.016 10.927 0 3.018 3.018 3.018 7.909 0 10.928l-46.776 46.777c-1.51 1.508-3.487 2.263-5.464 2.263z" fill="#e2e2e2" data-original="#fb54b6" style="" class=""/></g><g><path d="m164.66 358.278c-1.977 0-3.955-.755-5.463-2.263-3.018-3.018-3.018-7.909 0-10.928l76.701-76.702c3.017-3.016 7.909-3.016 10.927 0 3.018 3.018 3.018 7.909 0 10.928l-76.701 76.702c-1.51 1.509-3.487 2.263-5.464 2.263z" fill="#e2e2e2" data-original="#fb54b6" style="" class=""/></g><g><path d="m122.49 400.448c-1.977 0-3.955-.755-5.463-2.263-3.018-3.018-3.018-7.909 0-10.928l15.477-15.477c3.017-3.016 7.909-3.016 10.927 0 3.018 3.018 3.018 7.909 0 10.928l-15.477 15.477c-1.509 1.508-3.487 2.263-5.464 2.263z" fill="#e2e2e2" data-original="#fb54b6" style="" class=""/></g></g></g></svg>
